<svg id="Layer_1" data-name="Layer 1" xmlns="http://www.w3.org/2000/svg" xmlns:xlink="http://www.w3.org/1999/xlink" viewBox="0 0 1920 1080"><defs><style>.cls-1{fill:url(#radial-gradient);}.cls-2{fill:none;stroke:#e5e5e5;stroke-miterlimit:10;stroke-width:4px;opacity:0.07;}</style><radialGradient id="radial-gradient" cx="960" cy="1076.5" r="1466.25" gradientUnits="userSpaceOnUse"><stop offset="0" stop-color="#2196f3"/><stop offset="0.2" stop-color="#1b7ac5"/><stop offset="0.42" stop-color="#1766a6"/><stop offset="0.67" stop-color="#135286"/><stop offset="0.81" stop-color="#114b7a"/></radialGradient></defs><rect class="cls-1" x="0.5" y="0.5" width="1919" height="1079"/><path d="M1919,1V1079H1V1H1919m1-1H0V1080H1920V0Z"/><path class="cls-2" d="M708.56,1080c0-138.87,112.57-251.44,251.44-251.44S1211.44,941.13,1211.44,1080"/><path class="cls-2" d="M546.52,1080c0-228.36,185.12-413.48,413.48-413.48S1373.48,851.64,1373.48,1080"/><path class="cls-2" d="M384.48,1080c0-317.85,257.67-575.52,575.52-575.52S1535.52,762.15,1535.52,1080"/><path class="cls-2" d="M222.44,1080c0-407.34,330.22-737.56,737.56-737.56S1697.56,672.66,1697.56,1080"/><path class="cls-2" d="M60.41,1080c0-496.83,402.76-899.59,899.59-899.59S1859.59,583.17,1859.59,1080"/><path class="cls-2" d="M0,626.15C170.15,266.87,536.06,18.37,960,18.37s789.86,248.5,960,607.79"/><path class="cls-2" d="M0,321.13A1229.25,1229.25,0,0,1,376.73,4"/><path class="cls-2" d="M1535.8,0A1229.24,1229.24,0,0,1,1920,321.14"/></svg>